<svg width="36" height="36" viewBox="0 0 36 36" fill="none" xmlns="http://www.w3.org/2000/svg">
<rect x="1" y="1" width="34" height="34" rx="5" fill="white"/>
<rect x="1" y="1" width="34" height="34" rx="5" stroke="#C7D2FE" stroke-width="2"/>
<path fill-rule="evenodd" clip-rule="evenodd" d="M12.1667 16.3359C11.25 16.3359 10.5 17.0859 10.5 18.0026C10.5 18.9193 11.25 19.6693 12.1667 19.6693C13.0833 19.6693 13.8333 18.9193 13.8333 18.0026C13.8333 17.0859 13.0833 16.3359 12.1667 16.3359ZM23.8333 16.3359C22.9167 16.3359 22.1667 17.0859 22.1667 18.0026C22.1667 18.9193 22.9167 19.6693 23.8333 19.6693C24.75 19.6693 25.5 18.9193 25.5 18.0026C25.5 17.0859 24.75 16.3359 23.8333 16.3359ZM16.3333 18.0026C16.3333 17.0859 17.0833 16.3359 18 16.3359C18.9167 16.3359 19.6667 17.0859 19.6667 18.0026C19.6667 18.9193 18.9167 19.6693 18 19.6693C17.0833 19.6693 16.3333 18.9193 16.3333 18.0026Z" fill="#201F37"/>
</svg>
